<?xml version="1.0" encoding="UTF-8"?>
<svg id="Layer_1" data-name="Layer 1" xmlns="http://www.w3.org/2000/svg" viewBox="0 0 778 280.6">
  <g>
    <path d="M82.65,41.84v1.51l-1.36,4.99,2.57,32.73c2.22,7.51-.98,12.9-9.6,16.18l-.83-1.36c-12.2,0-23.81-4.31-34.85-12.93l-28.27,11.04c-1.92,0-3.48-10.1-4.69-30.32l.15-6.35c0-3.12,2.29-4.95,6.88-5.48,4.59-.53,8.79-2.78,12.62-6.77l-2.12,6.05v6.2l1.28,24.42,12.17-1.89c-1.71-6.6-2.57-12.62-2.57-18.07,0-7.71,3.93-11.84,11.79-12.4l6.96-1.74-2.04,2.57c0,16.13,3.02,25.55,9.07,28.27,3.33,2.52,6.63,4.28,9.9,5.29-3.43-11.95-5.14-20.36-5.14-25.25,0-6.8,1.28-10.21,3.86-10.21,5.79-.81,10.53-2.97,14.21-6.5Z"/>
    <path d="M53.64,0c7.66,0,14.26,5.44,19.81,16.33l7.33,26.31h-1.59l-11.42-14.89c-10.48-11.54-19.66-17.04-27.52-16.48-2.22,7.81.03,12,6.73,12.55l6.35-.83v1.51c-6.96,7.31-14.21,10.13-21.77,8.47-8.67-.96-13-4.97-13-12.02,1.11-5.64,7.16-9.57,18.14-11.79l1.97-1.89c6.2-.1,11.19-2.52,14.97-7.26Z"/>
    <path d="M99.13,60.21c10.23-2.52,16.25-5.97,18.07-10.36,4.69,0,9.45-2.19,14.29-6.58,19.25,6.05,29.16,13.36,29.71,21.92v16.93c-.71,38.96-.86,59.4-.45,61.31l.53,6.27-3.78-1.06c-7.66-6-11.79-11.57-12.4-16.71,2.22-43.44.86-66-4.08-67.66-9.58-7.11-16.58-10.66-21.02-10.66-3.68,2.07-5.52,4.46-5.52,7.18,13.46,5.54,20.19,10.63,20.19,15.27v1.13c-1.36,15.17-3.53,23.81-6.5,25.93-4.18,3.48-9.02,5.22-14.52,5.22l-.23-4.08-22.83-7.71-1.13-4.39c3.88-19.81,7.11-30.47,9.68-31.98ZM108.43,76.69c-1.46,3.38-2.19,6.45-2.19,9.22v.6c4.18,2.72,7.56,4.46,10.13,5.22l.53-5.22c-.35-6.55-3.17-9.83-8.47-9.83Z"/>
    <path d="M184.33,54.09c.35,11.95,1.06,20.66,2.12,26.16,1.06,5.49,1.74,9.6,2.04,12.32.5,4.23-4.23,7.31-14.21,9.22-4.28-10.68-6.4-24.29-6.35-40.82.05-7.61,1.74-11.42,5.06-11.42,5.85-.6,9.6-2.07,11.27-4.38l1.28.23c-.6,3.02-1.01,5.92-1.21,8.69Z"/>
    <path d="M202.47,60.21c10.23-2.52,16.25-5.97,18.07-10.36,4.69,0,9.45-2.19,14.29-6.58,19.25,6.05,29.16,13.36,29.71,21.92v16.93c-.71,38.96-.86,59.4-.45,61.31l.53,6.27-3.78-1.06c-7.66-6-11.79-11.57-12.4-16.71,2.22-43.44.86-66-4.08-67.66-9.58-7.11-16.58-10.66-21.02-10.66-3.68,2.07-5.52,4.46-5.52,7.18,13.46,5.54,20.19,10.63,20.19,15.27v1.13c-1.36,15.17-3.53,23.81-6.5,25.93-4.18,3.48-9.02,5.22-14.52,5.22l-.23-4.08-22.83-7.71-1.13-4.39c3.88-19.81,7.11-30.47,9.68-31.98ZM211.77,76.69c-1.46,3.38-2.19,6.45-2.19,9.22v.6c4.18,2.72,7.56,4.46,10.13,5.22l.53-5.22c-.35-6.55-3.17-9.83-8.47-9.83Z"/>
    <path d="M343.8,60.21c10.23-2.52,16.25-5.97,18.07-10.36,4.69,0,9.45-2.19,14.29-6.58,19.25,6.05,29.15,13.36,29.71,21.92v16.93c-.7,38.96-.86,59.4-.45,61.31l.53,6.27-3.78-1.06c-7.66-6-11.79-11.57-12.4-16.71,2.22-43.44.86-66-4.08-67.66-9.58-7.11-16.58-10.66-21.02-10.66-3.68,2.07-5.52,4.46-5.52,7.18,13.46,5.54,20.19,10.63,20.19,15.27v1.13c-1.36,15.17-3.53,23.81-6.5,25.93-4.18,3.48-9.02,5.22-14.52,5.22l-.23-4.08-22.83-7.71-1.13-4.39c3.88-19.81,7.11-30.47,9.68-31.98ZM353.09,76.69c-1.46,3.38-2.19,6.45-2.19,9.22v.6c4.18,2.72,7.56,4.46,10.13,5.22l.53-5.22c-.35-6.55-3.17-9.83-8.47-9.83Z"/>
    <path d="M460.67,42.37h1.36c-2.22,2.57-3.33,4.76-3.33,6.58v5.97l2.65,38.18c-.3,10.08-1.31,15.12-3.02,15.12-3.58-1.11-7.33-5.69-11.26-13.76-7.41-5.75-12.9-8.67-16.48-8.77v8.77c-3.53,3.48-7.94,6.33-13.23,8.54-3.48,0-5.22-14.29-5.22-42.87.55-5.24,3.14-8.3,7.75-9.19,4.61-.88,9.26-3.09,13.95-6.61l2.04.68c-3.98,3.33-5.97,5.97-5.97,7.94l-.6,5.9,1.13,21.77c4.23,0,8.21-1.61,11.95-4.84l1.51.83c-1.26-6-1.89-12.8-1.89-20.41,0-4.23,2.34-7.11,7.03-8.62,4.38,0,8.26-1.74,11.64-5.22Z"/>
    <path d="M484.11,54.09c.35,11.95,1.06,20.66,2.12,26.16,1.06,5.49,1.74,9.6,2.04,12.32.5,4.23-4.23,7.31-14.21,9.22-4.28-10.68-6.4-24.29-6.35-40.82.05-7.61,1.74-11.42,5.06-11.42,5.85-.6,9.6-2.07,11.26-4.38l1.29.23c-.6,3.02-1.01,5.92-1.21,8.69Z"/>
    <path d="M535.69,43.2l-2.04,5.22c0,1.76,2.57,6.25,7.71,13.46v.68c.55,6.3-6.1,12.93-19.96,19.88,18.04,7.86,27.07,19.46,27.07,34.78l-3.93,31.3h-1.59c-2.27-9.98-6.33-21.32-12.17-34.02-8.06-14.72-17.77-22.08-29.1-22.08l-9.22.83v-1.59c6.3-1.92,11.26-4.71,14.89-8.39l6.43-.83c4.13-2.42,6.83-4.42,8.09-6.01,1.26-1.59,1.89-3.82,1.89-6.69-5.29-6.8-7.94-11.29-7.94-13.46.55-3.73,2.99-5.96,7.3-6.69s8.51-2.86,12.59-6.39Z"/>
    <path d="M513.89,2c7.66,0,14.26,5.44,19.81,16.33l7.34,26.31h-1.59l-11.42-14.89c-10.48-11.54-19.66-17.04-27.52-16.48-2.22,7.81.02,12,6.73,12.55l6.35-.83v1.51c-6.95,7.31-14.21,10.13-21.77,8.47-8.67-.96-13-4.97-13-12.02,1.11-5.64,7.16-9.57,18.14-11.79l1.97-1.89c6.2-.1,11.19-2.52,14.97-7.26Z"/>
    <path d="M557.39,60.21c10.23-2.52,16.25-5.97,18.07-10.36,4.69,0,9.45-2.19,14.29-6.58,19.25,6.05,29.15,13.36,29.71,21.92v16.93c-.7,38.96-.86,59.4-.45,61.31l.53,6.27-3.78-1.06c-7.66-6-11.79-11.57-12.4-16.71,2.22-43.44.86-66-4.08-67.66-9.58-7.11-16.58-10.66-21.02-10.66-3.68,2.07-5.52,4.46-5.52,7.18,13.46,5.54,20.18,10.63,20.18,15.27v1.13c-1.36,15.17-3.53,23.81-6.5,25.93-4.18,3.48-9.02,5.22-14.52,5.22l-.23-4.08-22.83-7.71-1.14-4.39c3.88-19.81,7.11-30.47,9.68-31.98ZM566.69,76.69c-1.46,3.38-2.19,6.45-2.19,9.22v.6c4.18,2.72,7.56,4.46,10.13,5.22l.53-5.22c-.35-6.55-3.17-9.83-8.47-9.83Z"/>
    <path d="M642.59,54.09c.35,11.95,1.06,20.66,2.12,26.16,1.06,5.49,1.74,9.6,2.04,12.32.5,4.23-4.23,7.31-14.21,9.22-4.29-10.68-6.4-24.29-6.35-40.82.05-7.61,1.74-11.42,5.07-11.42,5.85-.6,9.6-2.07,11.26-4.38l1.28.23c-.6,3.02-1.01,5.92-1.21,8.69Z"/>
    <path d="M700.87,45.09v3.63c7.61,11.49,11.54,20.64,11.79,27.44.55,5.9-5.06,14.21-16.86,24.95-12.85,0-25.65-3.45-38.41-10.36-2.42-2.27-3.63-5.95-3.63-11.04.05-18.7,1.23-28.05,3.55-28.05,7.41,0,13.1-2.22,17.09-6.65l-2.12,28.8c-.25,5.75,7.31,10.96,22.68,15.65,1.11-3.02,1.39-5.8.83-8.32,0-3.88-4.44-12-13.31-24.34-.5-2.27-.18-4.26.98-5.97,7.16.25,12.95-1.66,17.39-5.75Z"/>
    <path d="M736.48,54.09c.35,11.95,1.06,20.66,2.12,26.16,1.06,5.49,1.74,9.6,2.04,12.32.5,4.23-4.23,7.31-14.21,9.22-4.28-10.68-6.4-24.29-6.35-40.82.05-7.61,1.74-11.42,5.06-11.42,5.85-.6,9.6-2.07,11.26-4.38l1.29.23c-.6,3.02-1.01,5.92-1.21,8.69Z"/>
    <path d="M761.05,44.71v.68l.98,2.04c3.43,4.54,4.76,23.39,4.01,56.55l-.68,22.15c1.36,8.27,3.2,16.38,5.52,24.34l-2.04.68c-11.74-7.06-17.89-13.61-18.45-19.66,0-19.15-.3-36.46-.91-51.94-.6-15.47-2.02-25.43-4.24-29.86,7.06-1.11,12.32-2.77,15.8-4.99Z"/>
    <path d="M17.08,254.33c-.37,0-.78-.12-1.24-.37-.46-.24-.69-.58-.69-1.01,0-.55.2-1,.6-1.33.4-.34.87-.56,1.42-.69,2.33-.49,4-1.1,5.01-1.84,1.01-.74,1.51-2.05,1.51-3.95v-38.4c0-2.33-.06-4.02-.18-5.1-.12-1.07-.28-1.77-.46-2.11s-.43-.57-.73-.69c-.43-.31-1.09-.49-1.98-.55-.89-.06-1.49-.09-1.79-.09h-1.56c-2.02,0-3.95.52-5.79,1.56s-3.31,2.3-4.41,3.77c-.31.43-.77,1.04-1.38,1.84-.61.8-1.26,1.5-1.93,2.11-.67.61-1.35.92-2.02.92-.55,0-.93-.17-1.15-.5-.22-.34-.32-.72-.32-1.15,0-.79.21-1.62.64-2.48,1.22-2.39,2.13-4.44,2.71-6.15.58-1.71.96-3.7,1.15-5.97.12-.86.4-1.47.83-1.84.43-.37.95-.55,1.56-.55.49,0,.98.4,1.47,1.19.49.8,1.04,1.44,1.65,1.93.67.49,1.75.86,3.22,1.1,1.47.25,2.6.37,3.4.37l35.09-.09c1.41,0,2.62-.15,3.63-.46,1.01-.31,1.73-.58,2.16-.83,1.04-.61,1.87-1.29,2.48-2.02.61-.73,1.32-1.1,2.11-1.1.43,0,.72.12.87.37.15.25.23.61.23,1.1,0,.24-.02.52-.05.83-.03.31-.08.61-.14.92-.31,1.23-.63,2.44-.96,3.63-.34,1.19-.61,2.34-.83,3.45-.22,1.1-.32,2.2-.32,3.31v1.93c0,1.1-.11,1.95-.32,2.53-.22.58-.63.87-1.24.87s-1.12-.28-1.52-.83c-.4-.55-.81-1.47-1.24-2.76-.8-2.45-1.87-4.22-3.21-5.33-1.35-1.1-3.34-1.65-5.97-1.65h-3.77c-.98,0-1.79.25-2.43.73-.64.49-1.12,1.42-1.42,2.8-.31,1.38-.46,3.41-.46,6.11v37.2c0,1.71.47,2.96,1.42,3.72.95.77,2.62,1.49,5.01,2.16.55.18,1.02.4,1.42.64.4.25.6.67.6,1.29,0,.43-.17.77-.5,1.01-.34.24-.75.37-1.24.37-1.29,0-2.85-.03-4.68-.09-1.84-.06-3.66-.12-5.47-.18-1.81-.06-3.32-.09-4.55-.09s-2.7.03-4.41.09c-1.72.06-3.44.14-5.19.23-1.75.09-3.29.14-4.64.14Z"/>
    <path d="M63.75,254.33c-.37,0-.7-.12-1.01-.37-.31-.24-.46-.55-.46-.92,0-.49.14-.89.41-1.19.27-.31.66-.52,1.15-.64,1.65-.43,2.8-.86,3.44-1.29.64-.43.96-1.13.96-2.11v-19.84c0-2.2-.32-3.69-.96-4.46s-1.64-1.24-2.99-1.42c-.37-.06-.64-.26-.83-.6-.18-.34-.28-.72-.28-1.15,0-.98.37-1.53,1.1-1.65,3.31-.67,6.31-1.58,9-2.71,2.69-1.13,4.75-2.01,6.15-2.62,1.1-.49,1.77-.74,2.02-.74.86,0,1.29.43,1.29,1.29-.06,1.16-.2,2.53-.41,4.09-.22,1.56-.4,3.17-.55,4.82-.15,1.65-.23,3.25-.23,4.78v20.11c0,.8.31,1.44.92,1.93.61.49,1.78,1.01,3.49,1.56.49.18.89.4,1.19.64.31.24.46.61.46,1.1,0,.86-.46,1.29-1.38,1.29-1.16,0-2.43-.03-3.81-.09-1.38-.06-2.73-.12-4.04-.18-1.32-.06-2.53-.09-3.63-.09-1.04,0-2.19.03-3.44.09-1.26.06-2.53.14-3.81.23-1.29.09-2.54.14-3.77.14ZM74.4,209.23c-2.08,0-3.89-.76-5.42-2.3-1.53-1.53-2.3-3.34-2.3-5.42,0-2.26.76-4.16,2.3-5.69s3.34-2.3,5.42-2.3c2.26,0,4.16.77,5.7,2.3,1.53,1.53,2.3,3.43,2.3,5.69,0,2.08-.77,3.89-2.3,5.42s-3.43,2.3-5.7,2.3Z"/>
    <path d="M114.17,255.34c-1.9,0-3.61-.15-5.14-.46-1.53-.31-2.91-.64-4.13-1.01-.86-.24-1.64-.44-2.34-.6-.7-.15-1.33-.23-1.88-.23-.61,0-1.23.11-1.84.32-.61.22-1.16.5-1.65.87-.61.43-1.1.64-1.47.64-.61,0-1.06-.12-1.33-.37-.28-.25-.41-.52-.41-.83,0-.55.18-1.65.55-3.31.37-1.65.52-3.8.46-6.43l-.46-40.05c0-1.65-.18-3.11-.55-4.36s-1.32-2.01-2.85-2.25c-.31-.06-.57-.21-.78-.46-.22-.24-.32-.58-.32-1.01,0-.37.09-.67.28-.92.18-.24.43-.4.74-.46,1.47-.31,3.14-.75,5.01-1.33,1.87-.58,3.69-1.21,5.47-1.88,1.78-.67,3.18-1.19,4.23-1.56.61-.24,1.07-.37,1.38-.37.43,0,.72.12.87.37.15.25.23.52.23.83,0,.43-.08,1.15-.23,2.16-.15,1.01-.23,1.95-.23,2.8l-.09,19.84c0,.73.08,1.33.23,1.79.15.46.35.69.6.69,1.9-1.22,3.83-2.16,5.79-2.8,1.96-.64,3.83-.96,5.6-.96,3.25,0,6.15.84,8.73,2.52,2.57,1.69,4.61,3.97,6.11,6.84,1.5,2.88,2.25,6.15,2.25,9.83,0,4.35-.96,8.19-2.89,11.53-1.93,3.34-4.59,5.94-7.99,7.81s-7.36,2.8-11.9,2.8ZM115.65,251.21c1.53,0,2.82-.72,3.86-2.16,1.04-1.44,1.85-3.34,2.43-5.69.58-2.36.87-4.92.87-7.67,0-2.45-.29-4.93-.87-7.44-.58-2.51-1.5-4.61-2.76-6.29-1.26-1.68-2.89-2.53-4.91-2.53-.8,0-1.88.12-3.26.37-1.38.25-2.5.67-3.35,1.29v19.93c0,1.96.38,3.72,1.15,5.28.76,1.56,1.76,2.77,2.99,3.63,1.22.86,2.51,1.29,3.86,1.29Z"/>
    <path d="M158.26,255.34c-3.31,0-6.28-.89-8.91-2.66-2.63-1.77-4.72-4.18-6.25-7.21-1.53-3.03-2.3-6.45-2.3-10.24s.92-7.49,2.76-10.7,4.32-5.77,7.44-7.67c3.12-1.9,6.58-2.85,10.38-2.85,2.63,0,5.02.58,7.16,1.74,2.14,1.16,3.86,2.71,5.14,4.64,1.29,1.93,1.93,4.12,1.93,6.57s-.95,3.58-2.85,3.58h-18.19c-.86,0-1.49.25-1.88.73-.4.49-.6,1.32-.6,2.48,0,2.2.49,4.21,1.47,6.02.98,1.81,2.33,3.23,4.04,4.27,1.71,1.04,3.7,1.56,5.97,1.56,1.78,0,3.41-.34,4.91-1.01,1.5-.67,3.01-1.59,4.55-2.76.18-.12.4-.26.64-.41.24-.15.46-.23.64-.23.67,0,1.01.4,1.01,1.19,0,.55-.18,1.38-.55,2.48-.55,1.65-1.56,3.29-3.03,4.91-1.47,1.62-3.35,2.96-5.65,4-2.3,1.04-4.91,1.56-7.85,1.56ZM154.59,226.5h4.87c1.77,0,2.95-.03,3.54-.09.58-.06,1.12-.18,1.61-.37.31-.12.55-.46.73-1.01.18-.55.28-1.13.28-1.74,0-1.59-.5-2.89-1.51-3.9-1.01-1.01-2.31-1.52-3.9-1.52-1.23,0-2.37.35-3.44,1.06-1.07.7-1.94,1.61-2.62,2.71-.67,1.1-.98,2.27-.92,3.49,0,.92.46,1.38,1.38,1.38Z"/>
    <path d="M198.5,255.34c-4.29,0-7.47-1.04-9.55-3.12-2.08-2.08-3.12-5.02-3.12-8.82v-21.13c0-.55-.22-.95-.64-1.19-.43-.24-1.16-.4-2.2-.46h-1.38c-.43,0-.8-.38-1.1-1.15-.31-.77-.46-1.45-.46-2.07,0-.12.03-.28.09-.46.06-.18.21-.31.46-.37,1.53-.49,3.22-1.35,5.05-2.57,1.84-1.22,3.61-2.53,5.33-3.9,1.71-1.38,3.09-2.5,4.13-3.35.49-.37.9-.67,1.24-.92.34-.24.75-.37,1.24-.37.61,0,1.04.12,1.29.37.24.25.31.8.18,1.65l-.64,5.69c-.06.8.12,1.33.55,1.61.43.28,1.01.41,1.75.41h11.02c.12,0,.28.21.46.64s.28.8.28,1.1c0,.98-.12,1.88-.37,2.71-.25.83-.52,1.24-.83,1.24h-8.45c-1.35,0-2.3.18-2.85.55-.55.37-.83.95-.83,1.74v17.18c0,2.88.53,5.01,1.61,6.38,1.07,1.38,2.5,2.07,4.27,2.07s2.97-.18,3.77-.55c.79-.37,1.53-.67,2.2-.92.24-.12.46-.18.64-.18.31,0,.55.2.74.6.18.4.28.87.28,1.42,0,.37-.67,1.06-2.02,2.07-1.35,1.01-3.09,1.95-5.24,2.8-2.14.86-4.44,1.29-6.89,1.29Z"/>
    <path d="M225.5,255.34c-1.78,0-3.4-.38-4.87-1.15-1.47-.77-2.63-1.81-3.49-3.12-.86-1.32-1.29-2.77-1.29-4.36,0-2.14.69-3.95,2.07-5.42,1.38-1.47,3.38-2.79,6.02-3.95l7.9-3.49c1.22-.55,1.99-1.06,2.3-1.52.31-.46.46-1.27.46-2.43l.09-5.05c.06-1.78-.22-3.14-.83-4.09-.61-.95-1.56-1.42-2.85-1.42-.74,0-1.5.17-2.3.5-.8.34-1.38.72-1.75,1.15-.18.25-.31.52-.37.83-.06.31-.09.61-.09.92,0,.37.03.84.09,1.42.06.58.09,1.06.09,1.42,0,.43-.52.93-1.56,1.51-1.04.58-2.24,1.1-3.58,1.56-1.35.46-2.51.69-3.49.69-.49,0-.9-.2-1.24-.6-.34-.4-.5-.9-.5-1.52,0-.98.34-1.93,1.01-2.85.67-.92,1.81-2.02,3.4-3.31,1.65-1.35,3.46-2.54,5.42-3.58,1.96-1.04,3.89-1.88,5.79-2.53,1.9-.64,3.52-.96,4.87-.96,3.49,0,6.28,1.12,8.36,3.35,2.08,2.24,3.06,5.22,2.94,8.96l-.46,17.82c-.06,1.41.17,2.62.69,3.63.52,1.01,1.18,1.51,1.98,1.51,1.1,0,2.08-.4,2.94-1.19.18-.18.37-.28.55-.28.31,0,.57.11.78.32.21.22.32.48.32.78,0,.74-.61,1.72-1.84,2.94-1.16,1.16-2.42,2.04-3.77,2.62-1.35.58-2.76.87-4.23.87-3.55,0-6.52-1.78-8.91-5.33h-.18c-2.02,1.9-3.83,3.26-5.42,4.09-1.59.83-3.28,1.24-5.05,1.24ZM231.19,249c.55,0,1.01-.09,1.38-.27.37-.18.7-.49,1.01-.92.18-.24.32-.55.41-.92.09-.37.14-.77.14-1.19l.28-7.07c0-.55-.09-.9-.28-1.06-.18-.15-.4-.23-.64-.23-.12,0-.26.01-.41.05-.15.03-.32.11-.5.23-1.47.8-2.59,1.61-3.35,2.43-.77.83-1.15,2.31-1.15,4.46,0,1.78.35,2.97,1.06,3.58.7.61,1.39.92,2.07.92Z"/>
    <path d="M258.11,254.33c-.37,0-.77-.12-1.19-.37-.43-.24-.64-.58-.64-1.01,0-.49.23-.89.69-1.19.46-.31.93-.55,1.42-.73.92-.31,1.71-.66,2.39-1.06.67-.4,1.01-1.21,1.01-2.43v-21.31c0-1.22-.2-2.28-.6-3.17-.4-.89-1.12-1.42-2.16-1.61-.25-.06-.48-.23-.69-.5-.22-.28-.32-.69-.32-1.24,0-.92.31-1.47.92-1.65,2.08-.49,4.5-1.15,7.26-1.98s5.05-1.7,6.89-2.62c.31-.12.63-.29.96-.5.34-.21.63-.32.87-.32.43,0,.69.12.78.37.09.25.14.52.14.83,0,.49-.08,1.26-.23,2.3s-.23,1.99-.23,2.85c0,.24.01.52.05.83.03.31.08.49.14.55,2.08-1.96,4.15-3.51,6.2-4.64,2.05-1.13,4.49-1.7,7.3-1.7,3.25,0,5.97,1.16,8.18,3.49s3.31,5.57,3.31,9.74v20.39c0,1.23.34,2.02,1.01,2.39.67.37,1.47.7,2.39,1.01.49.18.92.43,1.29.73.37.31.55.71.55,1.19,0,.43-.17.77-.5,1.01-.34.24-.69.37-1.06.37-1.23,0-2.42-.05-3.58-.14-1.16-.09-2.3-.17-3.4-.23-1.1-.06-2.2-.09-3.31-.09-1.04,0-2.11.03-3.22.09-1.1.06-2.22.14-3.35.23-1.13.09-2.31.14-3.54.14-.37,0-.7-.12-1.01-.37-.31-.24-.46-.58-.46-1.01,0-.49.17-.89.5-1.19.34-.31.75-.55,1.24-.73.92-.31,1.67-.64,2.25-1.01.58-.37.87-1.16.87-2.39v-18.09c0-2.27-.49-4.04-1.47-5.33-.98-1.29-2.27-1.93-3.86-1.93-1.16,0-2.2.17-3.12.5-.92.34-1.9.87-2.94,1.61-.25.18-.43.43-.55.74-.12.31-.18.61-.18.92v21.59c0,1.23.31,2.02.92,2.39.61.37,1.35.7,2.2,1.01,1.16.43,1.75,1.07,1.75,1.93,0,.37-.15.69-.46.97-.31.28-.64.41-1.01.41-1.23,0-2.39-.05-3.49-.14-1.1-.09-2.16-.17-3.17-.23-1.01-.06-2.07-.09-3.17-.09-1.04,0-2.14.03-3.31.09-1.16.06-2.36.14-3.58.23-1.23.09-2.45.14-3.67.14Z"/>
    <path d="M350.05,255.34c-2.63,0-5.21-.29-7.72-.87-2.51-.58-4.87-1.55-7.07-2.89-.43-.31-.84-.66-1.24-1.06-.4-.4-.69-.81-.87-1.24-.67-1.77-1.13-3.9-1.38-6.38-.25-2.48-.31-5.07-.18-7.76,0-.43.17-.74.51-.92.34-.18.75-.28,1.24-.28.67,0,1.12.09,1.33.28.21.18.44.49.69.92,1.41,4.53,3.47,8.3,6.2,11.3,2.72,3,5.95,4.5,9.69,4.5,1.9,0,3.44-.44,4.64-1.33,1.19-.89,2.08-1.99,2.66-3.31.58-1.32.87-2.59.87-3.81,0-1.84-.37-3.4-1.1-4.68-.74-1.29-1.87-2.48-3.4-3.58-1.53-1.1-3.52-2.3-5.97-3.58-2.57-1.41-5.07-2.94-7.49-4.59-2.42-1.65-4.39-3.67-5.92-6.06-1.53-2.39-2.3-5.39-2.3-9s1-6.84,2.99-9.51c1.99-2.66,4.65-4.73,7.99-6.2,3.34-1.47,7-2.2,10.98-2.2,2.33,0,4.61.25,6.84.74,2.23.49,4.03,1.01,5.37,1.56.8.31,1.35.63,1.65.96.31.34.61,1.03.92,2.07.31,1.29.53,2.86.69,4.73.15,1.87.23,4,.23,6.38,0,.8-.58,1.19-1.75,1.19-.49,0-.97-.14-1.42-.41s-.75-.63-.87-1.06c-.98-3.8-2.51-6.66-4.59-8.59-2.08-1.93-4.62-2.89-7.62-2.89-1.9,0-3.44.31-4.64.92-1.19.61-2.08,1.49-2.66,2.62-.58,1.13-.87,2.56-.87,4.27,0,1.35.49,2.63,1.47,3.86.98,1.23,2.4,2.47,4.27,3.72,1.87,1.26,4.06,2.65,6.57,4.18,3.55,2.08,6.31,4.1,8.27,6.06,1.96,1.96,3.34,4,4.13,6.11.79,2.11,1.19,4.52,1.19,7.21,0,4.35-.93,7.9-2.8,10.65-1.87,2.76-4.47,4.78-7.81,6.06-3.34,1.29-7.24,1.93-11.71,1.93Z"/>
    <path d="M396.35,255.34c-3.31,0-6.28-.89-8.91-2.66-2.63-1.77-4.72-4.18-6.25-7.21-1.53-3.03-2.3-6.45-2.3-10.24s.93-7.56,2.8-10.75c1.87-3.18,4.36-5.72,7.49-7.62,3.12-1.9,6.61-2.85,10.47-2.85,5.27,0,9.58,1.78,12.95,5.33.49.61.73,1.16.73,1.65,0,.37-.28.91-.83,1.61-.55.7-1.18,1.35-1.88,1.93-.7.58-1.3.87-1.79.87-.61,0-1.19-.18-1.74-.55-.55-.37-1.07-.77-1.56-1.19-1.65-1.41-3.29-2.53-4.92-3.35-1.62-.83-3.05-1.24-4.27-1.24-2.14,0-3.74.87-4.78,2.62-1.04,1.75-1.56,4.79-1.56,9.14,0,3,.43,5.57,1.29,7.72.86,2.14,2.14,3.78,3.86,4.91,1.71,1.13,3.83,1.7,6.34,1.7,1.84,0,3.45-.31,4.82-.92,1.38-.61,2.8-1.47,4.27-2.57.31-.24.58-.46.83-.64.25-.18.52-.28.83-.28.73,0,1.1.49,1.1,1.47,0,.24-.03.58-.09,1.01s-.21.92-.46,1.47c-.49,1.22-1.53,2.68-3.12,4.36-1.59,1.68-3.52,3.15-5.79,4.41s-4.78,1.88-7.53,1.88Z"/>
    <path d="M418.48,254.33c-.43,0-.84-.12-1.24-.37-.4-.24-.6-.58-.6-1.01,0-.49.2-.89.6-1.19.4-.31.9-.55,1.51-.73,1.41-.43,2.33-.87,2.76-1.33.43-.46.64-1.18.64-2.16v-21.4c0-1.22-.15-2.2-.46-2.94-.31-.73-.98-1.25-2.02-1.56-.31-.12-.6-.29-.87-.5-.28-.21-.41-.63-.41-1.24,0-.92.4-1.47,1.19-1.65,2.02-.49,4.27-1.12,6.75-1.88s4.64-1.58,6.48-2.44c.31-.18.7-.4,1.19-.64.49-.24.86-.37,1.1-.37.61,0,.92.37.92,1.1,0,.31-.01.95-.05,1.93-.03.98-.08,1.98-.14,2.99-.06,1.01-.09,1.82-.09,2.43s.12.92.37.92c.92-1.29,2.01-2.57,3.26-3.86,1.25-1.29,2.63-2.36,4.13-3.21,1.5-.86,3.01-1.29,4.54-1.29,2.27,0,3.86.43,4.78,1.29s1.38,1.96,1.38,3.31c0,.98-.28,2.07-.83,3.26s-1.26,2.22-2.11,3.08-1.78,1.29-2.76,1.29c-.61,0-1.24-.15-1.88-.46-.64-.31-1.3-.61-1.98-.92-.61-.31-1.22-.6-1.84-.87-.61-.28-1.16-.41-1.65-.41-1.59,0-2.94.6-4.04,1.79-1.1,1.19-1.65,3.57-1.65,7.12v14.14c0,1.35.37,2.33,1.1,2.94.74.61,1.96,1.16,3.67,1.65.67.18,1.18.41,1.52.69.34.28.5.66.5,1.15,0,.92-.49,1.38-1.47,1.38-1.84,0-3.86-.08-6.06-.23-2.2-.15-4.1-.23-5.69-.23-1.04,0-2.14.03-3.31.09-1.16.06-2.36.14-3.58.23-1.22.09-2.45.14-3.67.14Z"/>
    <path d="M457.8,254.33c-.37,0-.7-.12-1.01-.37-.31-.24-.46-.55-.46-.92,0-.49.14-.89.41-1.19.28-.31.66-.52,1.15-.64,1.65-.43,2.8-.86,3.44-1.29.64-.43.97-1.13.97-2.11v-19.84c0-2.2-.32-3.69-.97-4.46-.64-.77-1.64-1.24-2.98-1.42-.37-.06-.64-.26-.83-.6-.18-.34-.28-.72-.28-1.15,0-.98.37-1.53,1.1-1.65,3.31-.67,6.31-1.58,9-2.71s4.75-2.01,6.16-2.62c1.1-.49,1.77-.74,2.02-.74.86,0,1.29.43,1.29,1.29-.06,1.16-.2,2.53-.41,4.09s-.4,3.17-.55,4.82c-.15,1.65-.23,3.25-.23,4.78v20.11c0,.8.31,1.44.92,1.93.61.49,1.78,1.01,3.49,1.56.49.18.89.4,1.19.64.31.24.46.61.46,1.1,0,.86-.46,1.29-1.38,1.29-1.16,0-2.43-.03-3.81-.09-1.38-.06-2.72-.12-4.04-.18-1.32-.06-2.53-.09-3.63-.09-1.04,0-2.19.03-3.44.09-1.26.06-2.53.14-3.81.23-1.29.09-2.54.14-3.77.14ZM468.45,209.23c-2.08,0-3.89-.76-5.42-2.3-1.53-1.53-2.3-3.34-2.3-5.42,0-2.26.77-4.16,2.3-5.69,1.53-1.53,3.34-2.3,5.42-2.3,2.27,0,4.16.77,5.69,2.3,1.53,1.53,2.3,3.43,2.3,5.69,0,2.08-.76,3.89-2.3,5.42-1.53,1.53-3.43,2.3-5.69,2.3Z"/>
    <path d="M485.81,277.66c-.43,0-.84-.12-1.24-.37-.4-.25-.6-.58-.6-1.01,0-.49.2-.89.6-1.19.4-.31.9-.55,1.51-.74,1.41-.43,2.33-.87,2.76-1.33.43-.46.64-1.18.64-2.16v-43.45c0-.8-.15-1.55-.46-2.25-.31-.7-.73-1.3-1.29-1.79s-1.23-.8-2.02-.92c-.37-.12-.66-.29-.87-.5-.22-.21-.32-.63-.32-1.24,0-.55.11-.95.32-1.19.21-.24.48-.4.78-.46,2.08-.49,4.44-1.15,7.07-1.98,2.63-.83,4.87-1.7,6.7-2.62.31-.12.63-.29.97-.5.34-.21.63-.32.87-.32.43,0,.69.12.78.37.09.24.14.52.14.83,0,.49-.08,1.29-.23,2.39-.15,1.1-.23,2.08-.23,2.94,0,.61.06.98.18,1.1.61-.61,1.7-1.44,3.26-2.48,1.56-1.04,3.35-1.98,5.38-2.8,2.02-.83,3.98-1.24,5.88-1.24,3.31,0,6.12.89,8.45,2.66,2.33,1.78,4.1,4.04,5.33,6.8,1.22,2.75,1.84,5.63,1.84,8.63s-.55,5.68-1.65,8.41c-1.1,2.73-2.63,5.19-4.59,7.39s-4.22,3.95-6.8,5.24c-2.57,1.29-5.36,1.93-8.36,1.93-.61,0-1.36-.08-2.25-.23-.89-.15-1.79-.37-2.71-.64s-1.78-.57-2.57-.87c-.06,0-.12.03-.18.09-.06.06-.11.17-.14.32-.03.15-.04.35-.04.6v14.79c0,.86.17,1.56.5,2.11.34.55.86,1.01,1.56,1.38.7.37,1.61.73,2.71,1.1.67.18,1.18.41,1.52.69s.5.66.5,1.15c0,.37-.14.69-.41.97s-.63.41-1.06.41c-1.84,0-3.84-.08-6.02-.23-2.17-.15-4.06-.23-5.65-.23-1.04,0-2.14.03-3.31.09-1.16.06-2.36.14-3.58.23-1.22.09-2.45.14-3.67.14ZM509.97,251.21c.61,0,1.36-.24,2.25-.74.89-.49,1.76-1.32,2.62-2.48.86-1.16,1.58-2.71,2.16-4.64.58-1.93.87-4.3.87-7.12,0-3.31-.31-5.94-.92-7.9-.61-1.96-1.36-3.43-2.25-4.41-.89-.98-1.79-1.62-2.71-1.93-.92-.31-1.71-.46-2.39-.46-1.04,0-2.1.23-3.17.69-1.07.46-1.95,1.01-2.62,1.65-.67.64-1.01,1.24-1.01,1.79v2.66c0,1.41-.01,3.02-.04,4.82-.03,1.81-.04,3.46-.04,4.96v2.99c0,1.23.26,2.63.78,4.23.52,1.59,1.32,2.97,2.39,4.13,1.07,1.16,2.43,1.75,4.09,1.75Z"/>
    <path d="M553.69,255.34c-4.29,0-7.47-1.04-9.55-3.12-2.08-2.08-3.12-5.02-3.12-8.82v-21.13c0-.55-.22-.95-.64-1.19-.43-.24-1.16-.4-2.2-.46h-1.38c-.43,0-.8-.38-1.1-1.15-.31-.77-.46-1.45-.46-2.07,0-.12.03-.28.09-.46.06-.18.21-.31.46-.37,1.53-.49,3.22-1.35,5.05-2.57,1.84-1.22,3.61-2.53,5.33-3.9,1.71-1.38,3.09-2.5,4.13-3.35.49-.37.9-.67,1.24-.92.34-.24.75-.37,1.24-.37.61,0,1.04.12,1.29.37.24.25.31.8.18,1.65l-.64,5.69c-.06.8.12,1.33.55,1.61.43.28,1.01.41,1.74.41h11.02c.12,0,.28.21.46.64s.28.8.28,1.1c0,.98-.12,1.88-.37,2.71-.24.83-.52,1.24-.83,1.24h-8.45c-1.35,0-2.3.18-2.85.55-.55.37-.83.95-.83,1.74v17.18c0,2.88.53,5.01,1.61,6.38,1.07,1.38,2.5,2.07,4.27,2.07s2.97-.18,3.77-.55c.79-.37,1.53-.67,2.2-.92.24-.12.46-.18.64-.18.31,0,.55.2.73.6.18.4.28.87.28,1.42,0,.37-.67,1.06-2.02,2.07-1.35,1.01-3.09,1.95-5.24,2.8s-4.44,1.29-6.89,1.29Z"/>
    <path d="M590.43,255.34c-3.73,0-7.1-.83-10.1-2.48s-5.39-3.95-7.16-6.89c-1.78-2.94-2.66-6.28-2.66-10.01,0-3,.57-5.83,1.7-8.5,1.13-2.66,2.69-5.01,4.68-7.03,1.99-2.02,4.32-3.61,6.98-4.78,2.66-1.16,5.52-1.75,8.59-1.75,3.86,0,7.33.89,10.43,2.66,3.09,1.78,5.56,4.13,7.39,7.07,1.84,2.94,2.76,6.15,2.76,9.64,0,3.98-.84,7.65-2.53,11.02-1.68,3.37-4.19,6.05-7.53,8.04-3.34,1.99-7.52,2.99-12.54,2.99ZM592.18,251.02c1.1,0,2.05-.23,2.85-.69.8-.46,1.47-1.12,2.02-1.98.73-1.22,1.25-2.91,1.56-5.05.31-2.14.46-4.74.46-7.81,0-3.43-.34-6.43-1.01-9-.67-2.57-1.61-4.59-2.8-6.06-1.2-1.47-2.59-2.2-4.18-2.2-.8,0-1.53.14-2.21.41s-1.26.66-1.74,1.15c-1.04,1.1-1.76,2.8-2.16,5.1-.4,2.3-.6,5.22-.6,8.77,0,2.88.34,5.65,1.01,8.31.67,2.66,1.61,4.84,2.8,6.52,1.19,1.69,2.52,2.53,4,2.53Z"/>
    <path d="M616.8,254.33c-.61,0-1.07-.12-1.38-.37-.31-.24-.46-.58-.46-1.01,0-.49.18-.87.55-1.15.37-.28.89-.53,1.56-.78.92-.31,1.71-.63,2.39-.97s1.01-1.18,1.01-2.52v-43.63c0-1.65-.2-3.09-.6-4.32-.4-1.22-1.36-1.99-2.89-2.3-.67-.12-1.01-.61-1.01-1.47,0-.8.31-1.25.92-1.38,1.53-.31,3.29-.78,5.28-1.42,1.99-.64,3.89-1.3,5.7-1.98s3.17-1.16,4.09-1.47c.55-.18.98-.28,1.29-.28.43,0,.7.12.83.37.12.25.18.52.18.83,0,.43-.06,1.15-.18,2.16-.12,1.01-.22,1.95-.28,2.8v51.9c0,1.35.34,2.19,1.01,2.53.67.34,1.47.66,2.39.96.67.25,1.19.51,1.56.78.37.28.55.66.55,1.15,0,.43-.15.77-.46,1.01-.31.25-.77.37-1.38.37-1.23,0-2.45-.03-3.67-.09-1.23-.06-2.42-.11-3.58-.14-1.16-.03-2.3-.05-3.4-.05-1.04,0-2.1.03-3.17.09-1.07.06-2.18.14-3.31.23-1.13.09-2.31.14-3.54.14Z"/>
    <path d="M660.7,255.34c-3.74,0-7.1-.83-10.1-2.48-3-1.65-5.39-3.95-7.17-6.89-1.78-2.94-2.66-6.28-2.66-10.01,0-3,.57-5.83,1.7-8.5,1.13-2.66,2.69-5.01,4.68-7.03,1.99-2.02,4.32-3.61,6.98-4.78,2.66-1.16,5.52-1.75,8.59-1.75,3.86,0,7.33.89,10.43,2.66,3.09,1.78,5.56,4.13,7.4,7.07,1.84,2.94,2.76,6.15,2.76,9.64,0,3.98-.84,7.65-2.53,11.02-1.68,3.37-4.2,6.05-7.53,8.04-3.34,1.99-7.52,2.99-12.54,2.99ZM662.45,251.02c1.1,0,2.05-.23,2.85-.69.8-.46,1.47-1.12,2.02-1.98.73-1.22,1.25-2.91,1.56-5.05.31-2.14.46-4.74.46-7.81,0-3.43-.34-6.43-1.01-9-.67-2.57-1.61-4.59-2.8-6.06-1.19-1.47-2.59-2.2-4.18-2.2-.8,0-1.53.14-2.2.41-.67.28-1.26.66-1.74,1.15-1.04,1.1-1.76,2.8-2.16,5.1-.4,2.3-.6,5.22-.6,8.77,0,2.88.34,5.65,1.01,8.31.67,2.66,1.61,4.84,2.8,6.52,1.19,1.69,2.53,2.53,4,2.53Z"/>
    <path d="M705.43,280.6c-6.12,0-10.9-.92-14.33-2.76s-5.14-4.38-5.14-7.62c0-1.9.21-3.42.64-4.55.43-1.13,1.47-2.28,3.12-3.45,1.22-.86,2.36-1.68,3.4-2.48s1.87-1.41,2.48-1.84l4.68,1.84c-1.71.92-3.09,1.98-4.13,3.17-1.04,1.19-1.56,2.59-1.56,4.18,0,2.51,1.04,4.58,3.12,6.2,2.08,1.62,4.74,2.44,7.99,2.44,4.35,0,7.35-.83,9-2.48,1.04-1.04,1.87-2.2,2.48-3.49.61-1.29.92-2.54.92-3.77,0-.92-.31-1.65-.92-2.2s-1.76-1.03-3.44-1.42c-1.69-.4-4.09-.75-7.21-1.06-6.49-.67-11.13-1.98-13.92-3.9-2.79-1.93-4.18-4.42-4.18-7.49,0-.55.17-1.13.5-1.74.34-.61,1.02-1.25,2.07-1.93.86-.61,1.7-1.22,2.53-1.84.83-.61,1.54-1.19,2.16-1.75s1.01-1.04,1.19-1.47l4.87,1.65c-1.23.37-2.2.92-2.94,1.65-.74.73-1.1,1.35-1.1,1.84,0,.61.38,1.12,1.15,1.51.77.4,2.11.72,4.04.97,1.93.25,4.64.52,8.13.83,6.86.55,11.8,1.58,14.83,3.08,3.03,1.5,4.55,3.69,4.55,6.57,0,2.57-.72,5.11-2.16,7.62-1.44,2.51-3.37,4.81-5.79,6.89s-5.1,3.74-8.04,4.96c-2.94,1.22-5.94,1.84-9,1.84ZM705.62,245.42c-2.76,0-5.47-.66-8.13-1.98-2.66-1.32-4.87-3.15-6.61-5.51-1.74-2.36-2.62-5.03-2.62-8.04s.9-5.89,2.71-8.31c1.8-2.42,4.16-4.3,7.07-5.65,2.91-1.35,6.02-2.02,9.32-2.02,1.9,0,3.73.22,5.51.64,1.77.43,3.76.8,5.97,1.1,1.1.18,2.26.34,3.49.46,1.22.12,2.57.18,4.04.18.98,0,1.91-.05,2.8-.14s1.64-.14,2.25-.14c1.04,0,1.56.74,1.56,2.2,0,1.29-.43,2.51-1.29,3.67-.37.43-.77.64-1.2.64h-2.48c-1.59,0-2.7.25-3.31.74-.18.12-.31.21-.37.27-.06.06-.09.35-.09.87v3.17c0,3.25-.86,6.21-2.57,8.91-1.71,2.7-3.98,4.85-6.8,6.48s-5.91,2.43-9.28,2.43ZM706.72,241.19c1.84,0,3.29-1.06,4.36-3.17,1.07-2.11,1.61-4.98,1.61-8.59,0-2.33-.26-4.35-.78-6.06s-1.24-3.05-2.16-4c-.92-.95-2.02-1.43-3.31-1.43-1.16,0-2.2.48-3.12,1.43-.92.95-1.64,2.25-2.16,3.9-.52,1.65-.78,3.55-.78,5.69,0,2.33.27,4.41.83,6.25s1.32,3.29,2.3,4.36c.98,1.07,2.05,1.61,3.21,1.61Z"/>
    <path d="M740.71,280.05c-1.72,0-3.35-.61-4.91-1.84-1.56-1.23-2.34-2.7-2.34-4.41,0-1.22.31-2.43.92-3.63s1.59-1.79,2.94-1.79c1.04,0,2.11.18,3.21.55s2.14.52,3.12.46c1.04-.12,1.76-.38,2.16-.78.4-.4.87-1.12,1.43-2.16.37-.61.7-1.16,1.01-1.65.31-.49.67-1.16,1.1-2.02.43-.86,1.01-2.08,1.74-3.67.86-1.9,1.29-3.55,1.29-4.96,0-.98-.15-1.88-.46-2.71-.31-.83-.64-1.64-1.01-2.44l-11.39-25.44c-.61-1.41-1.26-2.58-1.93-3.53-.67-.95-1.59-1.64-2.76-2.07-.61-.24-1.04-.5-1.29-.78-.24-.27-.37-.69-.37-1.24,0-.49.28-.8.83-.92.55-.12,1.04-.18,1.47-.18,1.53,0,2.85.03,3.95.09,1.1.06,2.08.12,2.94.18.86.06,1.68.09,2.48.09,1.35,0,2.52-.03,3.54-.09,1.01-.06,2.08-.12,3.21-.18s2.44-.09,3.9-.09c.43,0,.9.09,1.43.28.52.18.78.52.78,1.01,0,.55-.22.92-.64,1.1s-.89.4-1.38.64c-.67.25-1.21.63-1.61,1.15-.4.52-.6,1.33-.6,2.44,0,.55.08,1.18.23,1.88.15.7.44,1.61.87,2.71l5.33,12.95c.06.12.12.18.18.18s.12-.06.18-.18l4.41-13.5c.18-.49.34-1.09.46-1.79.12-.7.18-1.33.18-1.88,0-1.04-.34-1.9-1.01-2.57s-1.35-1.13-2.02-1.38c-.49-.18-.95-.38-1.38-.6-.43-.21-.64-.6-.64-1.15,0-.49.26-.83.78-1.01.52-.18.99-.28,1.42-.28,1.84.06,3.21.14,4.13.23.92.09,1.78.14,2.57.14.49,0,1.01-.01,1.56-.05.55-.03,1.22-.08,2.02-.14.79-.06,1.77-.12,2.94-.18.43,0,.92.06,1.47.18.55.12.83.43.83.92,0,.55-.12.97-.37,1.24-.24.28-.67.54-1.29.78-1.16.43-2.19,1.12-3.08,2.07s-1.64,2.13-2.25,3.53l-13.96,33.62c-.61,1.47-1.23,2.92-1.84,4.36s-1.21,2.86-1.79,4.27c-.58,1.41-1.18,2.82-1.79,4.22-.61,1.41-1.23,2.82-1.84,4.23-.8,1.9-2.01,3.34-3.63,4.32-1.62.98-3.45,1.47-5.47,1.47Z"/>
  </g>
  <path d="M322.35,105.45c13.58,2.64,20.37,8.55,20.37,17.73,0,7.4-6.55,15.53-19.62,24.4-4.31,1.98-9.42,2.7-15.34,2.13-8.79,0-16.59-3.75-23.43-11.24-6.85-7.46-12.15-12.34-15.89-14.62,7.7-1.67,13.1-3.94,16.19-6.83,4.15.76,9.49,4.48,16.01,11.12,6.51,6.66,13.52,10,21.04,10,2.92-1.37,4.12-4.28,3.55-8.73,0-8.21-7.7-13.12-23.1-14.74,6.16-2.54,11.21-5.76,15.12-9.67-.36-3.03-1.28-5.89-2.81-8.58l-5.19,2.66-5.45-.37-19.47-4.85c-3.04-.82-6.18-.76-9.45.15,1.36-2.33,3.89-4.09,7.61-5.27,5.31-4.1,8.95-6.06,10.89-5.86l20.07,3.88-1.69-11.34-6.94,1.76c-2.12.43-8.98-1.06-20.59-4.48l-9.1,1.91-3.43-1.69c2.98-1.57,6.55-2.92,10.71-4.1,5.31-2.92,10.39-4.19,15.22-3.81,4.79.43,9.19,1.7,13.21,3.81l.15-12.16c-4.06.93-7.09,1.31-9.1,1.16l-12.95-2.06c-4.46-.31-10.13.43-17.01,2.28l-.3-1.91c6.06-1.98,11.58-4.7,16.56-8.13,7.66-1.36,13.1-1.92,16.34-1.69l9.52,2.13,4.78.37c2.24-.09,5.76-2.07,10.56-5.94l1.69,1.69c-.75,1.07-1.51,2.92-2.28,5.57-.45,5.33-.43,11.55.04,18.7.46,7.15.66,12.1.57,14.89-.1,2.76-.06,6.67.15,11.71-1.78,5.28-4.16,8.62-7.21,10.04h0Z"/>
</svg>