<?xml version="1.0" encoding="UTF-8"?>
<svg id="Layer_1" data-name="Layer 1" xmlns="http://www.w3.org/2000/svg" xmlns:xlink="http://www.w3.org/1999/xlink" viewBox="0 0 513.6 209.6">
  <defs>
    <style>
      .cls-1 {
        fill: none;
      }

      .cls-2 {
        clip-path: url(#clippath);
      }
    </style>
    <clipPath id="clippath">
      <rect class="cls-1" width="513.6" height="209.6"/>
    </clipPath>
  </defs>
  <g class="cls-2">
    <g>
      <path d="M54.94,36v1.03l-.93,3.35,1.75,22.08c1.48,5.05-.68,8.69-6.48,10.9l-.58-.93c-8.22,0-16.04-2.9-23.48-8.7l-19.05,7.43c-1.29,0-2.34-6.81-3.15-20.43l.1-4.28c0-2.11,1.54-3.35,4.63-3.7,3.1-.35,5.94-1.86,8.53-4.55l-1.45,4.08v4.18l.88,16.45,8.2-1.28c-1.15-4.45-1.73-8.51-1.73-12.18,0-5.2,2.65-7.98,7.95-8.35l4.68-1.18-1.38,1.73c0,10.87,2.04,17.22,6.13,19.05,2.23,1.7,4.46,2.89,6.68,3.58-2.32-8.05-3.48-13.73-3.48-17.03,0-4.58.86-6.88,2.6-6.88,3.9-.53,7.09-1.99,9.58-4.38Z"/>
      <path d="M34.7,9.15c5.17,0,9.62,3.67,13.35,11l4.95,17.73h-1.08l-7.7-10.03c-7.05-7.78-13.23-11.48-18.53-11.1-1.5,5.27.01,8.09,4.53,8.45l4.28-.55v1c-4.68,4.94-9.58,6.84-14.68,5.73-5.83-.65-8.75-3.35-8.75-8.1.75-3.81,4.83-6.46,12.23-7.95l1.33-1.28c4.19-.06,7.54-1.7,10.08-4.9Z"/>
      <path d="M59.52,69.92c2.61-13.35,4.78-20.53,6.5-21.55,6.9-1.7,10.96-4.03,12.18-6.98,3.16,0,6.38-1.48,9.65-4.43,12.96,4.07,19.63,8.99,20,14.78v11.4c-.47,26.25-.57,40.03-.3,41.33l.35,4.23-2.55-.73c-5.15-4.04-7.94-7.79-8.35-11.25,1.5-29.26.58-44.46-2.75-45.6-6.45-4.78-11.17-7.18-14.15-7.18-2.49,1.39-3.73,3-3.73,4.85,9.06,3.74,13.6,7.16,13.6,10.28v.78c-.92,10.22-2.38,16.04-4.38,17.48-2.82,2.34-6.08,3.5-9.78,3.5l-.15-2.75-15.4-5.2-.75-2.95ZM72.3,59.47c-.99,2.29-1.48,4.36-1.48,6.23v.4c2.81,1.84,5.09,3.01,6.83,3.53l.35-3.53c-.24-4.41-2.14-6.63-5.7-6.63Z"/>
      <path d="M124.24,38.4c-.4,2.04-.67,3.99-.8,5.85.23,8.05.7,13.93,1.4,17.63.71,3.7,1.18,6.47,1.4,8.3.33,2.87-2.86,4.94-9.58,6.23-2.9-7.2-4.34-16.36-4.3-27.5.03-5.13,1.18-7.7,3.43-7.7,3.93-.41,6.46-1.4,7.6-2.95l.85.15Z"/>
      <path d="M129.14,69.92c2.61-13.35,4.78-20.53,6.5-21.55,6.9-1.7,10.96-4.03,12.18-6.98,3.16,0,6.38-1.48,9.65-4.43,12.96,4.07,19.63,8.99,20,14.78v11.4c-.47,26.25-.57,40.03-.3,41.33l.35,4.23-2.55-.73c-5.15-4.04-7.94-7.79-8.35-11.25,1.5-29.26.58-44.46-2.75-45.6-6.45-4.78-11.17-7.18-14.15-7.18-2.49,1.39-3.73,3-3.73,4.85,9.06,3.74,13.6,7.16,13.6,10.28v.78c-.92,10.22-2.38,16.04-4.38,17.48-2.82,2.34-6.08,3.5-9.78,3.5l-.15-2.75-15.4-5.2-.75-2.95ZM141.92,59.47c-.99,2.29-1.48,4.36-1.48,6.23v.4c2.81,1.84,5.09,3.01,6.83,3.53l.35-3.53c-.24-4.41-2.14-6.63-5.7-6.63Z"/>
      <path d="M214.81,79.55c9.1,1.77,13.65,5.73,13.65,11.88,0,4.96-4.39,10.41-13.15,16.35-2.89,1.33-6.31,1.81-10.28,1.43-5.89,0-11.12-2.51-15.7-7.53-4.59-5-8.14-8.27-10.65-9.8,5.16-1.12,8.78-2.64,10.85-4.58,2.78.51,6.36,3,10.73,7.45,4.36,4.46,9.06,6.7,14.1,6.7,1.96-.92,2.76-2.87,2.38-5.85,0-5.5-5.16-8.79-15.48-9.88,4.13-1.7,7.51-3.86,10.13-6.48-.24-2.03-.86-3.95-1.88-5.75l-3.48,1.78-3.65-.25-13.05-3.25c-2.04-.55-4.14-.51-6.33.1.91-1.56,2.61-2.74,5.1-3.53,3.56-2.75,6-4.06,7.3-3.93l13.45,2.6-1.13-7.6-4.65,1.18c-1.42.29-6.02-.71-13.8-3l-6.1,1.28-2.3-1.13c2-1.05,4.39-1.96,7.18-2.75,3.56-1.96,6.96-2.81,10.2-2.55,3.21.29,6.16,1.14,8.85,2.55l.1-8.15c-2.72.62-4.75.88-6.1.78l-8.68-1.38c-2.99-.21-6.79.29-11.4,1.53l-.2-1.28c4.06-1.33,7.76-3.15,11.1-5.45,5.13-.91,8.78-1.29,10.95-1.13l6.38,1.43,3.2.25c1.5-.06,3.86-1.39,7.08-3.98l1.13,1.13c-.5.72-1.01,1.96-1.53,3.73-.3,3.57-.29,7.74.03,12.53.31,4.79.44,8.11.38,9.98-.07,1.85-.04,4.47.1,7.85-1.19,3.54-2.79,5.78-4.83,6.73Z"/>
      <path d="M223.77,69.92c2.61-13.35,4.78-20.53,6.5-21.55,6.9-1.7,10.96-4.03,12.18-6.98,3.16,0,6.38-1.48,9.65-4.43,12.96,4.07,19.63,8.99,20,14.78v11.4c-.47,26.25-.57,40.03-.3,41.33l.35,4.23-2.55-.73c-5.15-4.04-7.94-7.79-8.35-11.25,1.5-29.26.58-44.46-2.75-45.6-6.45-4.78-11.17-7.18-14.15-7.18-2.49,1.39-3.73,3-3.73,4.85,9.06,3.74,13.6,7.16,13.6,10.28v.78c-.92,10.22-2.38,16.04-4.38,17.48-2.82,2.34-6.08,3.5-9.78,3.5l-.15-2.75-15.4-5.2-.75-2.95ZM236.55,59.47c-.99,2.29-1.48,4.36-1.48,6.23v.4c2.81,1.84,5.09,3.01,6.83,3.53l.35-3.53c-.24-4.41-2.14-6.63-5.7-6.63Z"/>
      <path d="M309.02,36.35h.93c-1.5,1.74-2.25,3.22-2.25,4.45v4.03l1.8,25.73c-.2,6.79-.89,10.18-2.05,10.18-2.4-.75-4.93-3.84-7.58-9.28-5-3.86-8.71-5.83-11.13-5.9v5.9c-2.37,2.35-5.34,4.28-8.9,5.78-2.35,0-3.53-9.63-3.53-28.9.38-3.53,2.13-5.59,5.23-6.18,3.11-.6,6.25-2.09,9.4-4.48l1.38.48c-2.69,2.24-4.03,4.02-4.03,5.35l-.4,3.98.75,14.65c2.86,0,5.55-1.08,8.05-3.25l1.03.55c-.85-4.03-1.28-8.61-1.28-13.75,0-2.85,1.58-4.78,4.75-5.8,2.95,0,5.56-1.18,7.83-3.53Z"/>
      <path d="M325.62,38.4c-.4,2.04-.67,3.99-.8,5.85.23,8.05.7,13.93,1.4,17.63.71,3.7,1.18,6.47,1.4,8.3.33,2.87-2.86,4.94-9.58,6.23-2.9-7.2-4.34-16.36-4.3-27.5.03-5.13,1.18-7.7,3.43-7.7,3.93-.41,6.46-1.4,7.6-2.95l.85.15Z"/>
      <path d="M350.07,36.92l-1.38,3.5c0,1.2,1.73,4.23,5.2,9.08v.45c.36,4.25-4.12,8.72-13.45,13.4,12.16,5.3,18.25,13.12,18.25,23.45l-2.65,21.08h-1.08c-1.54-6.72-4.27-14.36-8.2-22.93-5.44-9.91-11.98-14.88-19.63-14.88l-6.2.58v-1.08c4.24-1.3,7.58-3.18,10.03-5.65l4.33-.58c2.78-1.63,4.6-2.98,5.45-4.05.85-1.06,1.28-2.56,1.28-4.5-3.57-4.58-5.35-7.61-5.35-9.08.38-2.51,2.03-4.01,4.93-4.5,2.9-.5,5.73-1.93,8.48-4.3Z"/>
      <path d="M339.83,11.05c5.17,0,9.62,3.67,13.35,11l3.25,14.3h-1.05l-6.03-6.68c-7.06-7.76-13.25-11.46-18.55-11.1-1.48,5.3.04,8.14,4.55,8.5l4.28-.55v.98c-4.68,4.95-9.58,6.87-14.68,5.75-5.83-.65-8.75-3.36-8.75-8.15.74-3.76,4.81-6.4,12.23-7.9l1.33-1.28c4.17-.1,7.53-1.73,10.08-4.88Z"/>
      <path d="M358.18,69.92c2.61-13.35,4.78-20.53,6.5-21.55,6.9-1.7,10.96-4.03,12.18-6.98,3.16,0,6.38-1.48,9.65-4.43,12.96,4.07,19.63,8.99,20,14.78v11.4c-.47,26.25-.57,40.03-.3,41.33l.35,4.23-2.55-.73c-5.15-4.04-7.94-7.79-8.35-11.25,1.5-29.26.58-44.46-2.75-45.6-6.45-4.78-11.17-7.18-14.15-7.18-2.49,1.39-3.73,3-3.73,4.85,9.06,3.74,13.6,7.16,13.6,10.28v.78c-.92,10.22-2.38,16.04-4.38,17.48-2.82,2.34-6.08,3.5-9.78,3.5l-.15-2.75-15.4-5.2-.75-2.95ZM370.95,59.47c-.99,2.29-1.48,4.36-1.48,6.23v.4c2.81,1.84,5.09,3.01,6.83,3.53l.35-3.53c-.24-4.41-2.14-6.63-5.7-6.63Z"/>
      <path d="M422.9,38.4c-.4,2.04-.67,3.99-.8,5.85.23,8.05.7,13.93,1.4,17.63.71,3.7,1.18,6.47,1.4,8.3.33,2.87-2.86,4.94-9.58,6.23-2.9-7.2-4.34-16.36-4.3-27.5.03-5.13,1.18-7.7,3.43-7.7,3.93-.41,6.46-1.4,7.6-2.95l.85.15Z"/>
      <path d="M461.35,38.2v2.45c5.13,7.74,7.78,13.89,7.95,18.48.38,3.99-3.4,9.59-11.35,16.83-8.67,0-17.29-2.33-25.88-7-1.64-1.51-2.45-3.99-2.45-7.43.03-12.6.83-18.9,2.4-18.9,4.98,0,8.81-1.49,11.5-4.48l-1.43,19.4c-.17,3.87,4.93,7.39,15.28,10.55.75-2.03.94-3.9.58-5.6,0-2.61-2.99-8.08-8.98-16.4-.34-1.53-.11-2.88.68-4.03,4.81.17,8.71-1.13,11.7-3.88Z"/>
      <path d="M486.15,38.4c-.4,2.04-.67,3.99-.8,5.85.23,8.05.7,13.93,1.4,17.63.71,3.7,1.18,6.47,1.4,8.3.33,2.87-2.86,4.94-9.58,6.23-2.9-7.2-4.34-16.36-4.3-27.5.03-5.13,1.18-7.7,3.43-7.7,3.93-.41,6.46-1.4,7.6-2.95l.85.15Z"/>
      <path d="M501.91,37.95v.45l.65,1.38c2.31,3.05,3.21,15.75,2.7,38.1l-.45,14.93c.91,5.56,2.16,11.03,3.73,16.4l-1.38.48c-7.92-4.77-12.07-9.19-12.45-13.25,0-12.91-.21-24.58-.63-35-.4-10.43-1.34-17.14-2.83-20.13,4.75-.75,8.3-1.86,10.65-3.35Z"/>
      <path d="M13.93,190.26c-.25,0-.53-.08-.83-.23-.3-.16-.45-.39-.45-.68,0-.35.13-.63.4-.85.26-.23.58-.39.93-.48,1.51-.31,2.61-.71,3.28-1.18.66-.48,1-1.35,1-2.6v-25.1c0-1.51-.04-2.63-.13-3.33-.09-.7-.19-1.16-.3-1.38-.12-.21-.28-.36-.48-.45-.29-.2-.72-.31-1.3-.35-.59-.05-.98-.08-1.18-.08h-1.03c-1.32,0-2.58.34-3.78,1.03-1.2.69-2.16,1.5-2.88,2.45-.2.29-.5.69-.9,1.23-.4.52-.83.98-1.28,1.38-.44.4-.87.6-1.3.6-.37,0-.63-.11-.78-.33-.14-.23-.2-.49-.2-.78,0-.51.14-1.05.43-1.6.8-1.56,1.39-2.91,1.78-4.03.38-1.11.63-2.41.75-3.9.08-.56.26-.96.53-1.2.28-.25.63-.38,1.03-.38.33,0,.66.27.98.8.31.52.68.94,1.08,1.25.43.32,1.13.56,2.1.73.96.15,1.71.23,2.23.23l22.93-.05c.91,0,1.7-.1,2.35-.3.66-.2,1.14-.38,1.43-.55.68-.4,1.23-.83,1.63-1.3.4-.48.86-.73,1.38-.73.28,0,.48.09.58.25.1.15.15.39.15.7,0,.17-.01.35-.03.55-.02.2-.05.4-.1.6-.2.8-.41,1.59-.63,2.38-.22.77-.4,1.52-.55,2.25-.14.72-.2,1.44-.2,2.15v1.25c0,.74-.08,1.29-.23,1.68-.14.37-.4.55-.8.55s-.74-.18-1-.53c-.25-.36-.52-.96-.8-1.8-.52-1.6-1.22-2.76-2.1-3.48-.89-.73-2.19-1.1-3.9-1.1h-2.45c-.65,0-1.19.17-1.6.5-.42.32-.73.93-.93,1.83s-.3,2.23-.3,3.98v24.33c0,1.12.31,1.93.93,2.43.61.5,1.71.97,3.28,1.4.36.14.68.29.93.45.26.15.4.43.4.83,0,.29-.12.51-.35.68-.22.15-.49.23-.8.23-.84,0-1.85-.03-3.05-.08-1.2-.04-2.39-.06-3.58-.1-1.19-.05-2.18-.08-2.98-.08s-1.77.03-2.9.08c-1.12.04-2.24.08-3.38.13-1.14.06-2.14.1-3.03.1Z"/>
      <path d="M44.39,190.26c-.24,0-.45-.08-.65-.23-.2-.16-.3-.36-.3-.6,0-.33.09-.6.28-.8.18-.2.43-.33.75-.4,1.08-.28,1.83-.56,2.25-.85.41-.28.63-.74.63-1.38v-12.98c0-1.43-.21-2.4-.63-2.9-.42-.5-1.07-.81-1.95-.95-.25-.03-.44-.16-.55-.38-.12-.21-.18-.46-.18-.75,0-.65.24-1.01.73-1.08,2.15-.45,4.11-1.04,5.88-1.78,1.76-.75,3.11-1.33,4.03-1.73.71-.31,1.16-.48,1.33-.48.55,0,.83.29.83.85-.04.75-.13,1.64-.28,2.68-.14,1.02-.25,2.07-.35,3.15-.1,1.07-.15,2.11-.15,3.13v13.13c0,.54.2.96.6,1.28.4.32,1.16.66,2.28,1.03.33.12.6.26.8.43.2.15.3.39.3.7,0,.57-.3.85-.9.85-.77,0-1.6-.03-2.5-.08-.9-.04-1.79-.06-2.65-.1-.85-.05-1.64-.08-2.35-.08s-1.44.03-2.28.08c-.82.04-1.65.08-2.5.13-.84.06-1.65.1-2.45.1ZM51.37,160.78c-1.37,0-2.55-.5-3.55-1.5s-1.5-2.18-1.5-3.53c0-1.48.5-2.73,1.5-3.73s2.18-1.5,3.55-1.5c1.46,0,2.7.5,3.7,1.5s1.5,2.24,1.5,3.73c0,1.35-.5,2.53-1.5,3.53s-2.24,1.5-3.7,1.5Z"/>
      <path d="M77.35,190.93c-1.25,0-2.38-.1-3.38-.3s-1.9-.43-2.7-.68c-.55-.15-1.06-.28-1.53-.38-.45-.1-.86-.15-1.23-.15-.4,0-.8.07-1.2.2-.4.14-.76.33-1.08.58-.4.28-.73.43-.98.43-.4,0-.69-.09-.88-.25-.17-.17-.25-.35-.25-.55,0-.35.11-1.06.35-2.15.23-1.08.33-2.48.3-4.2l-.3-26.18c0-1.08-.13-2.03-.38-2.85-.24-.81-.85-1.31-1.85-1.48-.2-.03-.38-.13-.53-.28-.14-.16-.2-.39-.2-.68,0-.25.06-.45.18-.6.13-.16.3-.26.5-.3.95-.2,2.03-.49,3.25-.88,1.23-.38,2.43-.79,3.58-1.23,1.16-.45,2.09-.79,2.78-1.03.4-.16.7-.25.9-.25.28,0,.48.09.58.25.1.17.15.35.15.55,0,.27-.05.74-.15,1.4-.1.67-.15,1.28-.15,1.83l-.08,12.98c0,.49.05.88.15,1.18s.23.45.4.45c1.23-.8,2.49-1.41,3.78-1.83,1.28-.43,2.51-.65,3.68-.65,2.11,0,4.01.55,5.7,1.65,1.68,1.1,3.01,2.59,3.98,4.48.98,1.89,1.48,4.03,1.48,6.43,0,2.84-.64,5.34-1.9,7.53-1.25,2.19-2.99,3.89-5.2,5.13-2.22,1.21-4.81,1.83-7.78,1.83ZM78.3,188.23c1,0,1.84-.46,2.53-1.4.68-.95,1.21-2.19,1.6-3.73.38-1.55.58-3.23.58-5.03,0-1.6-.19-3.21-.58-4.85-.39-1.65-.99-3.03-1.8-4.13-.82-1.1-1.89-1.65-3.23-1.65-.52,0-1.23.09-2.13.25-.9.15-1.64.43-2.2.83v13.03c0,1.29.25,2.44.75,3.45.5,1.02,1.15,1.81,1.95,2.38.8.57,1.64.85,2.53.85Z"/>
      <path d="M106.16,190.93c-2.17,0-4.12-.59-5.85-1.75-1.72-1.16-3.08-2.73-4.08-4.7-1-1.98-1.5-4.21-1.5-6.7s.6-4.9,1.8-7,2.81-3.76,4.85-5c2.05-1.25,4.31-1.88,6.8-1.88,1.71,0,3.28.39,4.68,1.15,1.41.75,2.54,1.76,3.38,3.03.83,1.27,1.25,2.7,1.25,4.3s-.62,2.33-1.85,2.33h-11.88c-.57,0-.99.17-1.25.5-.25.32-.38.85-.38,1.6,0,1.45.31,2.77.95,3.95.65,1.17,1.53,2.09,2.65,2.78,1.11.69,2.41,1.03,3.9,1.03,1.15,0,2.21-.21,3.2-.65.98-.45,1.98-1.05,2.98-1.8.11-.08.26-.18.43-.28.16-.1.31-.15.43-.15.43,0,.65.26.65.78,0,.37-.12.91-.35,1.63-.37,1.09-1.04,2.16-2,3.23-.95,1.05-2.18,1.92-3.68,2.6s-3.21,1.03-5.13,1.03ZM103.76,172.08h3.18c1.15,0,1.91-.01,2.3-.05.38-.05.73-.13,1.05-.25.2-.08.36-.3.48-.65.13-.36.2-.75.2-1.15,0-1.05-.34-1.9-1-2.55-.67-.66-1.52-1-2.55-1-.8,0-1.55.24-2.25.7-.7.45-1.28,1.04-1.73,1.78-.44.72-.63,1.48-.58,2.28,0,.6.3.9.9.9Z"/>
      <path d="M132.44,190.93c-2.8,0-4.89-.69-6.25-2.05-1.37-1.36-2.05-3.29-2.05-5.78v-13.8c0-.35-.14-.61-.43-.78-.27-.16-.74-.26-1.43-.3h-.9c-.29,0-.53-.25-.73-.75s-.3-.95-.3-1.35c0-.08.01-.18.05-.3.05-.11.15-.2.3-.25,1-.31,2.1-.88,3.3-1.68,1.21-.8,2.38-1.65,3.5-2.55,1.11-.9,2.01-1.63,2.7-2.2.31-.23.58-.43.8-.58.21-.16.49-.25.83-.25.4,0,.68.09.83.25.16.15.21.51.13,1.08l-.43,3.73c-.04.52.08.87.35,1.05.28.17.66.25,1.15.25h7.2c.08,0,.18.14.3.43.13.29.2.53.2.73,0,.64-.09,1.23-.25,1.78-.17.54-.35.8-.55.8h-5.53c-.87,0-1.49.13-1.85.38-.37.24-.55.61-.55,1.13v11.23c0,1.89.35,3.28,1.05,4.18s1.63,1.35,2.8,1.35,1.93-.11,2.45-.35c.53-.25,1.01-.45,1.45-.6.16-.08.31-.13.43-.13.2,0,.36.14.48.4.11.25.18.56.18.93,0,.24-.44.69-1.33,1.35-.87.65-2,1.26-3.4,1.83s-2.9.85-4.5.85Z"/>
      <path d="M150.07,190.93c-1.17,0-2.24-.25-3.2-.75-.95-.5-1.71-1.18-2.28-2.05-.55-.86-.83-1.81-.83-2.85,0-1.4.45-2.58,1.35-3.53.9-.96,2.21-1.83,3.93-2.6l5.18-2.28c.8-.36,1.3-.7,1.5-1s.3-.83.3-1.58l.05-3.33c.03-1.15-.15-2.03-.55-2.65-.4-.63-1.02-.95-1.85-.95-.49,0-.99.12-1.5.35-.52.22-.9.47-1.15.75-.12.15-.2.33-.25.53-.04.2-.05.4-.05.6,0,.25.01.57.05.95.05.37.08.68.08.93,0,.27-.34.59-1.03.98-.67.39-1.44.73-2.33,1.03-.89.3-1.65.45-2.3.45-.32,0-.59-.13-.8-.38-.22-.26-.33-.6-.33-1,0-.65.21-1.28.65-1.88.45-.6,1.19-1.31,2.23-2.15,1.08-.88,2.26-1.66,3.55-2.33,1.28-.68,2.54-1.23,3.78-1.65,1.23-.43,2.29-.65,3.18-.65,2.28,0,4.1.74,5.45,2.2,1.36,1.45,2.01,3.4,1.95,5.85l-.3,11.65c-.05.92.09,1.71.43,2.38.35.65.78.98,1.3.98.71,0,1.36-.26,1.93-.78.11-.11.23-.18.35-.18.2,0,.36.08.5.23.15.14.23.3.23.5,0,.47-.4,1.1-1.2,1.9-.75.77-1.57,1.34-2.45,1.73-.89.38-1.81.58-2.78.58-2.32,0-4.26-1.16-5.83-3.5h-.1c-1.34,1.25-2.52,2.14-3.55,2.68-1.04.55-2.14.83-3.3.83ZM153.8,186.78c.35,0,.64-.06.88-.18.25-.11.48-.31.68-.6.11-.16.21-.36.28-.6.06-.25.1-.51.1-.78l.18-4.63c0-.36-.07-.6-.2-.7-.12-.1-.25-.15-.4-.15-.09,0-.18.01-.28.03-.1.02-.21.07-.33.15-.97.52-1.7,1.05-2.2,1.6-.5.54-.75,1.5-.75,2.9,0,1.17.23,1.95.68,2.35.46.4.93.6,1.38.6Z"/>
      <path d="M171.37,190.26c-.24,0-.49-.08-.78-.23-.29-.16-.43-.39-.43-.68,0-.31.15-.58.45-.78s.61-.36.93-.48c.6-.2,1.11-.43,1.55-.68.45-.26.68-.8.68-1.6v-13.95c0-.8-.14-1.48-.4-2.05-.25-.58-.72-.93-1.4-1.05-.17-.05-.32-.16-.45-.33-.14-.18-.2-.46-.2-.83,0-.6.2-.96.6-1.08,1.35-.31,2.93-.74,4.73-1.28,1.8-.55,3.3-1.13,4.5-1.73.2-.08.41-.19.63-.33.23-.15.43-.23.58-.23.28,0,.45.09.5.25.06.15.1.33.1.53,0,.34-.05.84-.15,1.53-.1.67-.15,1.29-.15,1.85,0,.15,0,.33.03.53.03.2.06.33.1.38,1.36-1.28,2.71-2.29,4.05-3.03,1.35-.75,2.94-1.13,4.78-1.13,2.11,0,3.89.77,5.33,2.3,1.45,1.52,2.18,3.64,2.18,6.35v13.33c0,.8.21,1.33.65,1.58.45.24.98.45,1.58.65.31.12.59.28.83.48.25.2.38.46.38.78,0,.29-.11.51-.33.68-.22.15-.45.23-.7.23-.8,0-1.59-.04-2.35-.1-.75-.05-1.49-.09-2.2-.13-.72-.05-1.44-.08-2.18-.08-.67,0-1.37.03-2.1.08-.72.04-1.45.08-2.2.13-.74.06-1.5.1-2.3.1-.24,0-.45-.08-.65-.23-.2-.16-.3-.39-.3-.68,0-.31.11-.58.33-.78.21-.2.49-.36.83-.48.6-.2,1.08-.41,1.45-.65.38-.25.58-.78.58-1.58v-11.83c0-1.48-.33-2.64-.98-3.48-.64-.85-1.47-1.28-2.5-1.28-.77,0-1.45.12-2.05.35-.6.22-1.24.56-1.93,1.03-.15.14-.27.3-.35.5-.09.2-.13.4-.13.6v14.1c0,.8.2,1.33.6,1.58.4.24.88.45,1.45.65.75.29,1.13.7,1.13,1.25,0,.25-.1.47-.3.65-.2.16-.42.25-.65.25-.8,0-1.56-.04-2.28-.1-.72-.05-1.41-.09-2.08-.13-.67-.05-1.36-.08-2.08-.08s-1.41.03-2.18.08c-.75.04-1.53.08-2.33.13-.8.06-1.6.1-2.4.1Z"/>
      <path d="M231.44,190.93c-1.72,0-3.4-.19-5.05-.58-1.64-.38-3.18-1.01-4.63-1.9-.27-.2-.54-.43-.8-.68-.27-.26-.46-.54-.58-.83-.44-1.15-.74-2.53-.9-4.15-.15-1.63-.19-3.33-.13-5.1,0-.26.11-.46.33-.58.23-.13.51-.2.83-.2.43,0,.71.07.85.2.15.12.31.31.48.58.91,2.97,2.26,5.44,4.05,7.4,1.78,1.95,3.89,2.93,6.33,2.93,1.25,0,2.26-.28,3.03-.85.78-.58,1.36-1.31,1.75-2.18.38-.86.58-1.7.58-2.5,0-1.2-.24-2.21-.73-3.05-.49-.83-1.23-1.61-2.23-2.33-1-.73-2.3-1.51-3.9-2.35-1.69-.91-3.32-1.91-4.9-3-1.57-1.08-2.85-2.4-3.85-3.95-1-1.56-1.5-3.53-1.5-5.9s.65-4.46,1.95-6.2c1.3-1.75,3.03-3.1,5.2-4.05,2.18-.96,4.58-1.45,7.18-1.45,1.53,0,3.03.16,4.48.48,1.46.32,2.64.66,3.53,1.03.51.2.88.41,1.08.63.2.22.4.67.6,1.35.2.84.35,1.87.45,3.1.1,1.22.15,2.61.15,4.18,0,.52-.39.78-1.15.78-.32,0-.63-.09-.93-.28-.3-.18-.49-.41-.58-.7-.64-2.48-1.64-4.35-3-5.6-1.35-1.26-3.01-1.9-4.98-1.9-1.24,0-2.24.2-3.03.6-.79.4-1.37.98-1.75,1.73-.39.74-.58,1.66-.58,2.78,0,.89.31,1.73.95,2.53.65.8,1.58,1.62,2.8,2.45,1.23.82,2.66,1.73,4.3,2.73,2.31,1.35,4.11,2.67,5.4,3.95,1.28,1.29,2.18,2.62,2.7,4,.51,1.39.78,2.95.78,4.7,0,2.85-.61,5.18-1.83,6.98-1.22,1.8-2.92,3.13-5.1,3.98-2.19.83-4.74,1.25-7.65,1.25Z"/>
      <path d="M261.69,190.93c-2.17,0-4.12-.59-5.85-1.75-1.72-1.16-3.08-2.73-4.08-4.7-1-1.98-1.5-4.21-1.5-6.7s.61-4.94,1.83-7.03c1.23-2.08,2.86-3.74,4.9-4.98,2.05-1.25,4.33-1.88,6.85-1.88,3.45,0,6.28,1.16,8.48,3.48.31.4.48.77.48,1.1,0,.24-.19.59-.55,1.05-.35.45-.76.87-1.23,1.25-.47.39-.86.58-1.18.58-.4,0-.79-.11-1.15-.35-.35-.25-.69-.51-1-.8-1.09-.91-2.16-1.64-3.23-2.18-1.05-.55-1.98-.83-2.78-.83-1.4,0-2.44.58-3.13,1.73-.69,1.14-1.03,3.13-1.03,5.98,0,1.95.28,3.63.83,5.03.56,1.4,1.41,2.48,2.53,3.23,1.13.74,2.51,1.1,4.15,1.1,1.2,0,2.25-.2,3.15-.6s1.83-.96,2.8-1.68c.2-.16.38-.31.53-.43.16-.11.35-.18.55-.18.48,0,.73.32.73.95,0,.17-.03.39-.08.68-.04.27-.14.59-.3.95-.32.8-1,1.75-2.05,2.85-1.04,1.1-2.29,2.07-3.78,2.9-1.47.81-3.1,1.23-4.9,1.23Z"/>
      <path d="M276.14,190.26c-.29,0-.56-.08-.83-.23-.25-.16-.38-.39-.38-.68,0-.31.13-.58.38-.78.26-.2.6-.36,1-.48.91-.28,1.51-.58,1.8-.88.28-.3.43-.76.43-1.4v-14c0-.8-.1-1.44-.3-1.93-.2-.48-.64-.83-1.33-1.03-.2-.06-.39-.16-.58-.3-.17-.15-.25-.43-.25-.83,0-.6.26-.96.78-1.08,1.31-.33,2.78-.75,4.4-1.25,1.63-.5,3.05-1.03,4.25-1.58.2-.11.46-.26.78-.43.31-.16.56-.25.73-.25.4,0,.6.24.6.73,0,.2-.02.63-.05,1.28-.02.64-.05,1.29-.1,1.95-.04.65-.05,1.18-.05,1.58s.08.6.25.6c.6-.83,1.31-1.66,2.13-2.5.81-.85,1.71-1.55,2.7-2.1.98-.56,1.98-.85,2.98-.85,1.48,0,2.53.29,3.13.85.6.55.9,1.27.9,2.15,0,.64-.19,1.34-.55,2.13-.35.79-.81,1.46-1.38,2.03s-1.15.83-1.8.83c-.4,0-.81-.1-1.23-.3-.42-.2-.85-.4-1.3-.6-.4-.2-.8-.39-1.2-.58-.4-.18-.76-.28-1.08-.28-1.04,0-1.92.39-2.65,1.18-.72.79-1.08,2.34-1.08,4.65v9.25c0,.89.24,1.53.73,1.93.48.4,1.28.76,2.4,1.08.43.12.76.27.98.45.23.19.35.44.35.75,0,.6-.33.9-.98.9-1.2,0-2.52-.05-3.95-.15-1.44-.1-2.68-.15-3.73-.15-.69,0-1.41.03-2.18.08-.75.04-1.53.08-2.33.13-.8.06-1.6.1-2.4.1Z"/>
      <path d="M301.81,190.26c-.24,0-.45-.08-.65-.23-.2-.16-.3-.36-.3-.6,0-.33.09-.6.28-.8.18-.2.43-.33.75-.4,1.08-.28,1.83-.56,2.25-.85.41-.28.63-.74.63-1.38v-12.98c0-1.43-.21-2.4-.63-2.9-.42-.5-1.07-.81-1.95-.95-.25-.03-.44-.16-.55-.38-.12-.21-.18-.46-.18-.75,0-.65.24-1.01.73-1.08,2.15-.45,4.11-1.04,5.88-1.78,1.76-.75,3.11-1.33,4.03-1.73.71-.31,1.16-.48,1.33-.48.55,0,.83.29.83.85-.04.75-.13,1.64-.28,2.68-.14,1.02-.25,2.07-.35,3.15-.1,1.07-.15,2.11-.15,3.13v13.13c0,.54.2.96.6,1.28.4.32,1.16.66,2.28,1.03.33.12.6.26.8.43.2.15.3.39.3.7,0,.57-.3.85-.9.85-.77,0-1.6-.03-2.5-.08-.9-.04-1.79-.06-2.65-.1-.85-.05-1.64-.08-2.35-.08s-1.44.03-2.28.08c-.82.04-1.65.08-2.5.13-.84.06-1.65.1-2.45.1ZM308.78,160.78c-1.37,0-2.55-.5-3.55-1.5s-1.5-2.18-1.5-3.53c0-1.48.5-2.73,1.5-3.73s2.18-1.5,3.55-1.5c1.46,0,2.7.5,3.7,1.5s1.5,2.24,1.5,3.73c0,1.35-.5,2.53-1.5,3.53s-2.24,1.5-3.7,1.5Z"/>
      <path d="M320.12,205.51c-.29,0-.56-.09-.83-.25-.25-.15-.38-.37-.38-.65,0-.32.13-.58.38-.78.26-.2.6-.36,1-.48.91-.29,1.51-.58,1.8-.88.28-.3.43-.78.43-1.43v-28.38c0-.53-.1-1.03-.3-1.48-.2-.46-.49-.86-.85-1.18-.35-.31-.79-.51-1.3-.6-.25-.08-.45-.19-.6-.33-.14-.15-.2-.43-.2-.83,0-.35.06-.6.2-.75.15-.16.33-.28.53-.33,1.36-.31,2.91-.74,4.63-1.28,1.71-.55,3.18-1.13,4.38-1.73.2-.08.41-.19.63-.33.23-.13.43-.2.58-.2.28,0,.45.09.5.25.06.15.1.33.1.53,0,.32-.05.84-.15,1.55-.1.72-.15,1.36-.15,1.93,0,.4.04.64.13.73.4-.4,1.11-.94,2.13-1.63,1.03-.68,2.21-1.29,3.53-1.83,1.31-.55,2.6-.83,3.85-.83,2.15,0,3.98.59,5.5,1.75,1.53,1.17,2.7,2.65,3.5,4.45s1.2,3.68,1.2,5.63-.37,3.72-1.1,5.5c-.72,1.79-1.72,3.4-3,4.85-1.27,1.44-2.74,2.58-4.43,3.43-1.69.83-3.51,1.25-5.48,1.25-.4,0-.89-.05-1.48-.15-.57-.1-1.15-.24-1.75-.43-.6-.19-1.17-.38-1.7-.58-.04,0-.08.01-.13.05-.04.05-.06.13-.08.23-.02.1-.03.23-.03.38v9.68c0,.56.11,1.03.33,1.38.21.36.55.66,1,.9.46.25,1.06.49,1.8.73.43.11.76.26.98.45.21.18.33.43.33.75,0,.23-.09.44-.28.63-.17.18-.39.28-.68.28-1.2,0-2.51-.05-3.93-.15-1.42-.1-2.65-.15-3.7-.15-.69,0-1.41.01-2.18.05-.75.05-1.53.1-2.33.15-.8.06-1.6.1-2.4.1ZM335.89,188.23c.41,0,.91-.16,1.48-.48.58-.33,1.15-.88,1.7-1.63.56-.76,1.04-1.78,1.43-3.03.38-1.26.58-2.83.58-4.68,0-2.15-.2-3.86-.6-5.15-.4-1.28-.89-2.24-1.48-2.88-.59-.65-1.18-1.08-1.78-1.28s-1.12-.3-1.55-.3c-.69,0-1.38.15-2.08.45s-1.28.66-1.73,1.08c-.44.42-.65.81-.65,1.18v1.75c0,.92-.01,1.97-.03,3.15-.02,1.19-.03,2.27-.03,3.25v1.93c0,.8.16,1.73.5,2.78.35,1.04.88,1.94,1.58,2.7.7.77,1.58,1.15,2.65,1.15Z"/>
      <path d="M364.48,190.93c-2.8,0-4.89-.69-6.25-2.05-1.37-1.36-2.05-3.29-2.05-5.78v-13.8c0-.35-.14-.61-.43-.78-.27-.16-.74-.26-1.43-.3h-.9c-.29,0-.53-.25-.73-.75s-.3-.95-.3-1.35c0-.08.01-.18.05-.3.05-.11.15-.2.3-.25,1-.31,2.1-.88,3.3-1.68,1.21-.8,2.38-1.65,3.5-2.55,1.11-.9,2.01-1.63,2.7-2.2.31-.23.58-.43.8-.58.21-.16.49-.25.83-.25.4,0,.68.09.83.25.16.15.21.51.13,1.08l-.43,3.73c-.04.52.08.87.35,1.05.28.17.66.25,1.15.25h7.2c.08,0,.18.14.3.43.13.29.2.53.2.73,0,.64-.09,1.23-.25,1.78-.17.54-.35.8-.55.8h-5.53c-.87,0-1.49.13-1.85.38-.37.24-.55.61-.55,1.13v11.23c0,1.89.35,3.28,1.05,4.18s1.63,1.35,2.8,1.35,1.93-.11,2.45-.35c.53-.25,1.01-.45,1.45-.6.16-.08.31-.13.43-.13.2,0,.36.14.48.4.11.25.18.56.18.93,0,.24-.44.69-1.33,1.35-.87.65-2,1.26-3.4,1.83s-2.9.85-4.5.85Z"/>
      <path d="M388.46,190.93c-2.44,0-4.64-.54-6.6-1.63-1.95-1.08-3.51-2.58-4.68-4.5-1.17-1.93-1.75-4.11-1.75-6.55,0-1.96.36-3.81,1.1-5.55.75-1.75,1.78-3.28,3.08-4.6,1.3-1.31,2.81-2.35,4.55-3.1,1.75-.76,3.63-1.15,5.63-1.15,2.53,0,4.81.59,6.83,1.75,2.01,1.15,3.63,2.69,4.83,4.63,1.2,1.92,1.8,4.01,1.8,6.28,0,2.6-.55,5.01-1.65,7.23-1.1,2.2-2.74,3.95-4.93,5.25-2.19,1.3-4.92,1.95-8.2,1.95ZM389.61,188.11c.71,0,1.33-.15,1.85-.45.53-.3.98-.73,1.33-1.3.48-.8.83-1.9,1.03-3.3s.3-3.1.3-5.1c0-2.23-.23-4.19-.68-5.88-.44-1.68-1.04-3-1.83-3.95-.77-.96-1.68-1.45-2.73-1.45-.52,0-1,.09-1.45.28-.44.17-.81.41-1.13.73-.69.74-1.16,1.85-1.43,3.35-.25,1.5-.38,3.41-.38,5.73,0,1.89.21,3.7.65,5.45.45,1.74,1.06,3.15,1.83,4.25.78,1.1,1.66,1.65,2.63,1.65Z"/>
      <path d="M405.69,190.26c-.4,0-.7-.08-.9-.23-.2-.16-.3-.39-.3-.68,0-.31.11-.56.35-.75.25-.18.59-.35,1.03-.5.6-.2,1.11-.41,1.55-.63.45-.23.68-.78.68-1.65v-28.53c0-1.08-.14-2.03-.4-2.83-.25-.8-.88-1.3-1.88-1.5-.45-.08-.68-.4-.68-.95,0-.51.2-.81.6-.9,1-.2,2.15-.51,3.45-.93,1.31-.43,2.56-.86,3.73-1.3,1.18-.43,2.08-.76,2.68-.98.36-.11.65-.18.85-.18.28,0,.46.09.53.25.08.17.13.35.13.55,0,.27-.04.74-.13,1.4-.07.67-.13,1.28-.18,1.83v33.93c0,.89.21,1.44.65,1.65.45.22.98.43,1.58.63.43.17.76.34,1,.53.25.17.38.41.38.73,0,.29-.1.51-.3.68-.2.15-.5.23-.9.23-.8,0-1.6-.02-2.4-.05s-1.59-.06-2.35-.08c-.75-.03-1.49-.05-2.2-.05s-1.38.03-2.08.08c-.7.04-1.43.08-2.18.13-.74.06-1.5.1-2.3.1Z"/>
      <path d="M434.36,190.93c-2.44,0-4.64-.54-6.6-1.63-1.95-1.08-3.51-2.58-4.68-4.5-1.17-1.93-1.75-4.11-1.75-6.55,0-1.96.36-3.81,1.1-5.55.75-1.75,1.78-3.28,3.08-4.6,1.3-1.31,2.81-2.35,4.55-3.1,1.75-.76,3.63-1.15,5.63-1.15,2.53,0,4.81.59,6.83,1.75,2.01,1.15,3.63,2.69,4.83,4.63,1.2,1.92,1.8,4.01,1.8,6.28,0,2.6-.55,5.01-1.65,7.23-1.1,2.2-2.74,3.95-4.93,5.25-2.19,1.3-4.92,1.95-8.2,1.95ZM435.51,188.11c.71,0,1.33-.15,1.85-.45.53-.3.98-.73,1.33-1.3.48-.8.83-1.9,1.03-3.3s.3-3.1.3-5.1c0-2.23-.23-4.19-.68-5.88-.44-1.68-1.04-3-1.83-3.95-.77-.96-1.68-1.45-2.73-1.45-.52,0-1,.09-1.45.28-.44.17-.81.41-1.13.73-.69.74-1.16,1.85-1.43,3.35-.25,1.5-.38,3.41-.38,5.73,0,1.89.21,3.7.65,5.45.45,1.74,1.06,3.15,1.83,4.25.78,1.1,1.66,1.65,2.63,1.65Z"/>
      <path d="M462.39,207.43c-4,0-7.13-.6-9.38-1.8-2.24-1.2-3.35-2.86-3.35-4.98,0-1.25.14-2.25.43-3,.28-.74.96-1.48,2.05-2.23.8-.57,1.53-1.11,2.2-1.63.68-.52,1.23-.92,1.63-1.2l3.08,1.2c-1.12.6-2.02,1.29-2.7,2.08-.69.78-1.03,1.69-1.03,2.73,0,1.63.68,2.98,2.03,4.05,1.36,1.06,3.11,1.6,5.23,1.6,2.85,0,4.81-.54,5.9-1.63.68-.69,1.23-1.45,1.63-2.3.4-.84.6-1.65.6-2.45,0-.6-.2-1.09-.6-1.45-.4-.35-1.16-.66-2.28-.93-1.1-.25-2.67-.48-4.7-.68-4.24-.45-7.27-1.31-9.1-2.58-1.82-1.25-2.73-2.88-2.73-4.88,0-.36.11-.75.33-1.15.21-.4.66-.81,1.35-1.25.56-.4,1.11-.8,1.65-1.2.55-.4,1.03-.78,1.43-1.13.4-.36.66-.69.78-.98l3.18,1.08c-.8.24-1.44.59-1.93,1.08-.47.49-.7.89-.7,1.2,0,.4.25.74.75,1,.5.27,1.38.49,2.63.65,1.26.15,3.04.33,5.33.53,4.48.35,7.71,1.02,9.68,2,1.98.98,2.98,2.41,2.98,4.3,0,1.68-.48,3.34-1.43,4.98-.94,1.65-2.19,3.15-3.78,4.5-1.57,1.36-3.32,2.45-5.25,3.25-1.92.8-3.88,1.2-5.88,1.2ZM463.24,181.68c1.2,0,2.15-.69,2.85-2.08.7-1.38,1.05-3.25,1.05-5.6,0-1.53-.18-2.86-.53-3.98-.34-1.11-.8-1.98-1.4-2.6-.6-.63-1.32-.95-2.15-.95-.77,0-1.45.32-2.05.95-.6.62-1.08,1.47-1.43,2.55-.34,1.07-.5,2.31-.5,3.73,0,1.52.18,2.88.53,4.08.36,1.2.86,2.15,1.5,2.85.65.7,1.36,1.05,2.13,1.05ZM462.51,184.43c-1.8,0-3.58-.43-5.33-1.28-1.74-.86-3.18-2.06-4.33-3.6-1.14-1.55-1.7-3.3-1.7-5.25,0-2.05.59-3.86,1.78-5.45,1.18-1.58,2.73-2.81,4.63-3.68,1.9-.88,3.93-1.33,6.1-1.33,1.23,0,2.43.14,3.58.43,1.16.27,2.48.5,3.93.7.71.14,1.48.24,2.28.33.8.07,1.68.1,2.65.1.63,0,1.24-.03,1.83-.08.58-.06,1.08-.1,1.48-.1.68,0,1.03.49,1.03,1.45,0,.84-.29,1.64-.85,2.4-.24.27-.49.4-.78.4h-1.63c-1.05,0-1.78.17-2.18.5-.12.07-.2.13-.25.18-.04.04-.05.23-.05.58v2.08c0,2.12-.56,4.06-1.68,5.83-1.12,1.75-2.6,3.16-4.45,4.23-1.84,1.05-3.85,1.58-6.05,1.58Z"/>
      <path d="M485.43,207.06c-1.12,0-2.19-.4-3.23-1.2-1.02-.8-1.53-1.76-1.53-2.88,0-.8.2-1.59.6-2.38.4-.77,1.04-1.15,1.93-1.15.68,0,1.38.11,2.1.35.73.23,1.41.33,2.05.3.68-.09,1.15-.26,1.4-.53.26-.25.58-.72.95-1.4.23-.4.45-.76.65-1.08.2-.32.44-.76.73-1.33.28-.57.66-1.37,1.13-2.4.56-1.24.85-2.32.85-3.25,0-.63-.1-1.21-.3-1.75-.2-.55-.42-1.08-.65-1.6l-7.45-16.63c-.4-.91-.83-1.68-1.28-2.3-.44-.63-1.04-1.09-1.8-1.38-.4-.15-.69-.31-.85-.5-.15-.18-.23-.45-.23-.8,0-.33.18-.53.53-.6.36-.08.69-.13.98-.13,1,0,1.86.03,2.58.08.73.04,1.38.07,1.93.1.56.04,1.11.05,1.63.05.88,0,1.65-.01,2.3-.05.66-.03,1.36-.06,2.1-.1.75-.05,1.61-.08,2.58-.08.26,0,.56.06.9.18.35.12.53.34.53.65,0,.37-.14.61-.43.73-.27.12-.57.26-.9.43-.44.17-.79.42-1.05.75-.25.34-.38.87-.38,1.6,0,.35.05.76.15,1.23.1.45.29,1.04.58,1.78l3.48,8.45c.03.09.08.13.13.13.03,0,.08-.04.13-.13l2.88-8.83c.11-.31.21-.7.3-1.15.08-.46.13-.88.13-1.25,0-.68-.23-1.24-.68-1.68-.44-.43-.88-.73-1.33-.9-.32-.11-.62-.24-.9-.38-.27-.15-.4-.41-.4-.78,0-.31.16-.53.5-.65.33-.11.64-.18.93-.18,1.2.04,2.1.09,2.7.15.6.05,1.16.08,1.68.08.33,0,.68,0,1.03-.03.36-.01.81-.04,1.33-.08.51-.05,1.16-.09,1.93-.13.28,0,.6.04.95.13.36.07.55.27.55.6,0,.35-.09.62-.25.8-.15.19-.43.35-.83.5-.77.29-1.44.74-2.03,1.38-.59.62-1.08,1.39-1.48,2.3l-9.13,21.98c-.4.95-.8,1.89-1.2,2.83-.4.95-.79,1.88-1.18,2.8-.37.93-.75,1.86-1.15,2.78-.4.91-.8,1.83-1.2,2.75-.52,1.25-1.31,2.19-2.38,2.83-1.07.63-2.26.95-3.58.95Z"/>
    </g>
  </g>
</svg>